<?xml version="1.0" standalone="no"?>
<!DOCTYPE svg PUBLIC "-//W3C//DTD SVG 1.1//EN" "http://www.w3.org/Graphics/SVG/1.1/DTD/svg11.dtd" >
<svg xmlns="http://www.w3.org/2000/svg">
<metadata>Generated by IcoMoon</metadata>
<defs>
<font id="icomoon" horiz-adv-x="1024">
<font-face units-per-em="1024" ascent="960" descent="-64" />
<missing-glyph horiz-adv-x="1024" />
<glyph unicode="&#x20;" horiz-adv-x="512" d="" />
<glyph unicode="&#xe900;" glyph-name="special" horiz-adv-x="724" d="M432.409 552.522c23.75 0 47.499 0 71.248 0 39.048-16.101 66.62-44.859 92.279-77.705 47.258-60.527 76.739-67.182 132.94-36.791-8.525-17.158-15.956-37.093-30.279-47.954-26.308-19.929-56.653-34.499-85.321-51.306-27.406 0-54.816 0-82.219 0-66.853 20.77-121.474 59.153-164.607 116.988-42.55-58.097-97.49-96.047-164.243-116.988-27.402 0-54.809 0-82.219 0-48.804 15.529-88.976 42.397-115.091 87.698 0 5.479 0 10.957 0 16.438 44.528-32.525 71.586-30.418 110.386 8.791 35.828 36.208 62.484 82.801 114.329 100.828 21.919 0 43.843 0 65.767 0 20.321-10.249 40.371-21.109 61.142-30.346 5.748-2.554 14.738-2.54 20.366 0.173 18.966 9.115 37.085 19.973 55.525 30.173z" />
<glyph unicode="&#xe901;" glyph-name="adultclothes" horiz-adv-x="724" d="M572.628-43.284c-12.991 94.631-25.394 185.019-37.966 276.59-38.507-101.052-19.25-199.679 12.609-299.35-112.732 0-220.329 0-328.923 0 8.549 50.309 18.48 97.931 23.856 146.052 1.946 17.445-6.254 36.306-11.157 54.153-7.543 27.49-16.231 54.666-27.522 82.184-4.207-31.797-8.592-63.572-12.585-95.401-6.072-48.47-11.391-97.046-18.517-145.362-0.774-5.252-11.391-12.891-17.415-12.872-23.741 0.1-47.478 2.809-71.862 4.601 6.81 72.129 13.634 143.492 20.257 214.88 5.857 63.158 16.323 126.375 15.972 189.504-0.421 75.623-10.735 151.156-15.69 226.799-4.576 69.815-5.636 139.108 29.938 203.489 34.135 61.792 85.371 98.981 153.811 113.928 62.401 13.634 124.439 15.22 184.828-8.166 83.258-32.238 123.039-99.915 142.554-182.056 18.948-79.768 16.755-160.721 9.584-241.712-2.991-33.781-9.153-67.667-8.061-101.321 1.585-48.858 8.128-97.572 13.16-146.286 3.402-32.899 7.969-65.67 11.812-98.512 5.865-50.032 11.665-100.075 17.191-150.145 0.858-7.725 0.125-15.628 0.125-24.312-29.392-2.286-57.154-4.447-85.99-6.69zM298.042 376.268c-2.041-0.292-4.078-0.576-6.119-0.862 26.822-51.039 53.651-102.076 80.68-153.495 2.597 2.099 4.903 3.116 5.875 4.855 25.524 45.733 51.177 91.401 75.805 137.602 1.999 3.744-1.859 15.229-5.354 16.466-16.568 5.857-19.045 17.343-17.742 32.497 0.992 11.563 1.159 23.387-0.043 34.903-1.461 14.018 4.294 21.829 17.128 25.793 43.395 13.415 78.14 38.776 104.718 75.586 23.076 31.956 37.156 67.064 39.848 100.64-31.765 22.557-60.977 40.927-87.36 62.706-27.129 22.4-51.503 48.143-74.008 69.519-11.727-10.247-22.51-25.975-37.059-31.174-40.888-14.611-82.864-26.996-125.297-36.236-36.782-8.008-74.756-10.506-112.136-15.431-4.86-46.284 4.644-88.425 26.426-126.313 28.38-49.385 69.063-86.114 125.915-101.301 0-23.367 1.131-45.264-0.508-66.934-0.758-9.833-7.006-19.237-10.758-28.826z" />
<glyph unicode="&#xe902;" glyph-name="onstick" horiz-adv-x="724" d="M254.909 131.541c-19.842 0-39.684 0-59.526 0-7.237 10.878-17.628 18.972-20.699 33.41-9.139 42.967-20.050 85.558-30.571 128.218-2.988 12.107-2.075 23.808-0.841 36.121 2.392 23.917 5.436 47.232-5.203 71.664-12.971 29.778-25.287 61.368-21.901 95.123 4.895 48.854 22.526 79.713 69.283 93.672 26.768 7.989 54.146 3.955 81.008-0.335 31.161-4.979 61.52-14.124 93.942-10.356 22.367 2.6 29.443 5.759 36.081 26.639 6.132 19.283 13.39 38.057 22.778 56.041 20.876 40.007 49.26 71.882 93.072 87.369 3.109 1.1 6.759 1.348 6.216 6.062 24.563 0 49.132 0 73.702 0-0.143-5.637 4.417-4.813 7.827-5.967 18.603-6.287 37.588-11.638 54.923-21.175 11.636-6.405 13.429-13.869 5.98-25.085-3.861-5.821-8.11-11.418-12.552-16.817-4.094-4.973-5.1-8.545 0.065-14.276 17.484-19.423 33.689-40.016 51.388-59.227 5.778-6.268 7.175-16.586 17.096-19.025 0-10.393 0-20.787 0-31.179-6.221 0.705-7.004-5.069-10.098-8.245-14.912-15.27-18.36-24.973-44.105-12.232-7.666 3.793-16.854 7.504-25.731 5.485-20.544-4.665-38.867 0.199-56.343 10.601-6.727 4.010-11.496 4.678-11.092-5.579 0.78-19.764-2.634-39.311-3.401-59.035-1.093-27.952-4.196-56.392-19.376-81.083-8.762-14.257-9.57-29.291-8.204-44.828 4.458-50.481 6.7-101.077 8.256-151.71 0.332-10.781 1.103-21.495 2.059-32.245 1.539-17.327 4.228-35.404-4.88-51.997-15.121 0-30.235 0-45.355 0 0.82 4.461-3.196 5.156-5.551 7.178-8.011 6.877-13.099 14.543-14.984 25.896-9.558 57.659-17.132 115.586-24.908 173.487-2.441 18.186-2.858 18.776-20.783 17.295-1.41-0.112-2.845-0.094-4.225-0.361-49.86-9.467-99.029-7.023-146.858 10.253-9.042 3.264-11.887 0.087-14.804-6.426-8.883-19.829-20.939-37.798-34.086-54.861-5.61-7.284-7.044-14.354-5.305-22.255 6.625-30.080 14.456-59.911 20.429-90.118 3.908-19.752 13.117-39.084 7.284-60.094zM11.13 417.849c6.693 0.205 4.895 5.464 5.644 9.322 7.89 40.805 22.066 78.616 53.258 107.804 8.775 8.209 17.814 16.562 31.766 20.494-8.123-20.183-12.906-39.759-14.301-60.309-1.898-27.943 4.631-54.295 14.999-79.421 10.722-25.992 9.918-53.165 12.366-80.041 1.053-11.573-7.247-18.003-19.966-14.024-26.707 8.337-53.928 15.646-78.585 29.576-1.506 0.857-3.445 0.948-5.181 1.398 0 21.73 0 43.461 0 65.197zM677.558 362.472c-2.91-14.018-5.634-28.725-9.036-43.269-6.376-27.284-12.977-54.522-19.82-81.691-3.681-14.617-11.090-18.056-25.166-12.536-27.443 10.76-42.492 29.164-39.697 49.266 1.734 12.49 4.28 24.858 6.413 37.295 0.948 5.522 0.966 11.368 2.829 16.552 5.175 14.394 1.724 23.821-14.030 26.768-7.682 1.438-8.163 6.588-9.809 13.045-3.945 15.502 0.914 28.371 8.495 41.109 1.42 2.383 2.255 5.134 3.176 7.787 8.284 23.768 8.505 24.209 30.589 12.508 17.267-9.157 36.917-14.257 50.906-29.188 9.757-10.412 14.291-22.852 15.145-37.643zM320.956 157.017c-8.017-2.096-16.431 1.941-25.057 3.718-13.828 2.858-15.211 15.347-17.608 25.948-6.473 28.623-11.468 57.59-18.432 86.086-2.65 10.831-1.307 19.146 5.516 27.386 2.669 3.218 4.107 7.476 6.879 10.57 5.588 6.234 6.293 18.913 14.72 19.376 11.704 0.649 23.774-3.463 35.519-6.258 5.899-1.401 3.56-6.216 1.034-8.545-19.671-18.205-14.587-37.516-5.187-58.858 9.956-22.603 17.254-46.403 25.346-69.81 8.765-25.33 5.812-29.191-22.728-29.61z" />
<glyph unicode="&#xe903;" glyph-name="kidclothes" horiz-adv-x="724" d="M147.638 572.685c-2.009-9.723-2.015-9.793-13.159-8.357-23.015 2.969-38.203 16.41-48.497 36.391-6.175 11.993-9.671 24.631-8.287 38.149 0.527 5.149-3.377 7.155-5.895 9.383-5.069 4.487-9.908 9.19-14.763 13.886-15 14.506-29.941 29.076-44.999 43.526-3.771 3.618-7.1 7.168-7.246 12.906-0.263 10.137-3.922 20.146-0.711 30.44 1.118 3.594 2.866 6.101 6.689 5.763 8.543-0.756 17.103-1.585 25.548-3.015 5.014-0.851 8.055-5.495 11.656-8.6 15.945-13.729 31.477-27.945 46.974-42.192 2.906-2.669 4.769-2.98 7.479 0.010 13.495 14.886 29.944 25.516 48.639 32.564 7.752 2.922 15.754 5.625 23.887 6.954 7.122 1.166 9.214 5.019 9.871 11.17 1.649 15.458 4.913 30.482 10.295 45.184 2.415 6.589 3.488 13.86 5.069 20.834 4.295 18.918 12.138 36.139 22.982 52.12 10.803 15.921 24.748 28.661 41.378 37.889 12.653 7.018 26.497 11.55 41.057 13.845 13.343 2.107 26.569 4.628 40.169 4.132 4.445-0.161 8.707-0.045 12.924-2.328 5.362-2.903 11.371-0.026 17.142-0.846 9.159-1.304 17.493-5.781 26.217-7.383 22.062-4.067 39.149-16.244 56.11-29.489 16.43-12.824 28.586-29.292 39.038-46.768 10.661-17.829 17.931-37.577 21.558-58.010 1.469-8.277 3.446-16.811 3.466-25.478 0.015-4.538 0.915-8.974 6.777-10.338 19.636-4.556 36.952-13.974 51.994-27.113 14.406-12.58 26.523-27.247 35.685-44.222 5.407-10.017 9.64-20.625 11.497-31.668 3.533-20.984 3.168-41.944-13.208-58.274-11.817-11.783-26.947-17.806-43.617-19.344-5.787-0.531-11.458-1.904-17.393-1.637-4.104 0.186-5.877 1.584-4.962 5.348 3.929 16.146-1.026 32.009-1.939 47.923-0.592 10.325-5.104 20.606-8.854 30.524-5.005 13.221-10.945 26.086-16.587 39.062-0.502 1.15-1.745 1.975-2.772 3.093-28.814-83.385-86.136-131.099-174.57-127.519-83.468 3.382-141.589 62.609-157.823 138.977-6.857-7.739-12.814-15.548-17.341-24.413-4.078-7.993-8.453-15.81-11.323-24.418-1.133-3.4-0.264-5.196 1.921-7.1 17.61-15.34 35.291-30.608 52.855-46.002 13.404-11.747 26.778-23.533 39.929-35.556 3.996-3.654 7.912-5.577 13.573-5.557 61.155 0.209 122.312 0.101 183.469 0.199 4.489 0.008 7.263-1.112 10.434-4.948 17.693-21.374 36.141-42.123 54.070-63.301 14.724-17.385 29.004-35.15 43.641-52.611 11.838-14.123 24.002-27.966 35.863-42.066 16.616-19.75 32.478-40.181 49.942-59.141 6.306-6.845 7.292-13.384 7.095-21.418-0.183-7.289-0.055-14.582-0.031-21.872 0.012-3.508 0.536-5.684-5.184-4.889-5.549 0.771-11.623-2.087-17.441-3.457-5.848-1.373-11.647-2.932-17.498-4.293-2.798-0.652-4.896 0.602-6.785 2.705-22.906 25.53-45.821 51.060-68.819 76.512-17.512 19.383-35.201 38.606-52.701 58.001-11.225 12.443-22.241 25.070-33.903 38.239-2.068-7.529-1.334-14.594-1.941-21.356-1.353-15.063-3.855-30.055-3.463-45.33 0.186-7.278 3.409-12.772 6.369-18.665 9.209-18.349 18.27-36.784 27.927-54.9 9.741-18.277 18.204-37.187 28.335-55.285 8.158-14.574 14.812-29.98 22.434-44.864 6.498-12.69 11.817-26.007 19.77-37.933 0.989-1.484 1.709-2.881 0.869-4.527-1.13-2.206-3.32-1.314-5.050-1.319-29.401-0.054-58.804-0.039-88.207-0.039-15.011 0-15.011 0-15.011-14.869 0-52.456 0-104.907 0-157.358 0-10.424 0.126-11.22 10.546-9.588 7.566 1.185 7.99-1.758 7.892-7.649-0.246-15.176-0.059-15.177-14.91-15.177-20.229 0-40.457-0.044-60.684 0.020-10.411 0.032-9.14-1.272-9.145 8.817-0.039 62.802-0.14 125.606 0.155 188.408 0.031 6.517-1.872 8.151-7.845 7.478-7.149-0.807-16.79 3.039-20.858-1.589-3.545-4.029-1.109-13.42-1.109-20.441-0.031-58.101-0.103-116.195 0.103-174.295 0.025-6.393-1.746-8.626-8.35-8.53-23.516 0.344-47.042 0.245-70.562 0.039-4.554-0.039-6.244 1.172-5.987 5.878 0.209 3.909 0.449 7.858-0.608 11.869-0.972 3.679 0.975 6.004 5.229 5.309 0.691-0.114 1.373-0.305 2.069-0.374 10.362-1.006 10.362-1.001 10.362 9.604 0 54.808-0.093 109.611 0.132 164.417 0.028 6.125-1.103 8.272-7.868 8.216-41.865-0.357-83.735-0.122-125.605-0.246-5.801-0.020-6.835 0.574-3.561 6.339 12.795 22.528 26.225 44.691 38.847 67.294 12.285 21.996 25.548 43.452 37.182 65.792 5.88 11.294 12.697 22.134 19.384 32.78 7.052 11.233 12.001 23.673 20.048 34.212 7.558 9.894 2.821 19.95 0.934 29.929-0.391 2.087-0.696 4.124-0.626 6.165 0.698 19.66-2.923 38.995-4.277 58.501-0.098 1.451-0.561 2.498-1.732 3.582-7.189 6.644-14.305 13.376-21.312 20.213-22.522 21.979-44.951 44.049-67.5 65.996-4.091 3.972-8.582 7.529-12.986 11.37zM357.028 795.484c-9.366-14.197-17.831-28.504-28.214-41.497-8.192-10.255-15.905-21.124-28.933-26.128-7.774-2.987-11.026-1.321-10.476 6.658 0.749 10.932-1.627 21.323-4.619 31.555-1.301 4.455-2.984 11.22-7.207 11.781-4.768 0.629-5.392-6.574-7.437-10.356-8.189-15.144-17.571-29.119-33.045-37.66-2.637-1.456-4.584-2.886-4.162-5.565 1.825-11.616 3.277-23.481 7.64-34.378 7.592-18.984 18.87-35.625 34.569-49.129 9.157-7.879 18.89-15.087 29.902-19.676 11.872-4.949 24.201-8.409 37.529-9.312 13.897-0.939 27.308-0.414 40.649 2.947 18.002 4.529 33.702 13.181 48.142 25.1 13.446 11.098 23.169 24.741 31.102 39.666 8.069 15.187 10.494 32.277 13.064 49.131 0.944 6.191-1.924 9.45-8.158 9.316-14.19-0.305-28.157-3.442-42.269-4.011-19.008-0.771-38.076-0.391-57.115-0.101-8.947 0.137-10.952 2.784-10.952 11.97-0.003 16.567-0.002 33.139-0.002 49.708z" />
<glyph unicode="&#xe904;" glyph-name="blog" d="M896 704v128h-896v-704c0-35.36 28.64-64 64-64h864c53.024 0 96 42.976 96 96v544h-128zM832 128h-768v640h768v-640zM128 640h640v-64h-640zM512 512h256v-64h-256zM512 384h256v-64h-256zM512 256h192v-64h-192zM128 512h320v-320h-320z" />
<glyph unicode="&#xe905;" glyph-name="bracelets" d="M910.784 471.104c36.64 19.232 62.112 57.76 62.112 101.376 0 62.336-52.032 114.4-114.4 114.4s-114.4-52.032-114.4-114.4c0-45.504 27.712-85.472 66.912-103.776-47.584-20.832-81.536-68.672-81.536-123.232 0-20.736 4.928-40.512 13.6-58.208-20.736 11.072-44.256 17.408-69.024 17.408-74.72 0-138.016-57.408-147.648-129.824-16 55.232-63.648 98.112-121.312 106.88-9.376 1.952-19.072 3.008-28.96 3.008-30.368 0-58.816-9.76-82.304-26.272 9.216 17.664 14.496 37.632 14.496 58.624 0 70.336-58.688 129.024-129.024 129.024s-129.024-58.688-129.024-129.024 58.688-129.024 129.024-129.024c25.696 0 49.824 7.872 70.112 21.216-11.584-20.736-18.24-44.48-18.24-69.568 0-24.064 6.144-46.912 16.864-67.040 23.808-51.104 75.904-87.232 135.2-87.232 74.72 0 138.016 57.408 147.648 129.824 17.984-62.080 75.936-108.544 143.2-108.544 81.216 0 148.96 67.776 148.96 148.96 0 24.768-6.336 48.288-17.408 69.024 17.696-8.704 37.472-13.6 58.208-13.6 73.216 0 134.336 61.12 134.336 134.336 0 56.768-36.736 106.24-87.36 125.6zM189.344 220.576c-8.736 0-17.216 1.376-25.216 3.904 0.768 0 1.536-0.064 2.336-0.064 53.152 0 97.472 44.352 97.472 97.472 0 13.184-2.72 25.824-7.648 37.408 11.712-14.656 18.784-33.12 18.784-52.992 0-46.72-38.976-85.728-85.728-85.728zM401.472 24.224c-19.456 0-37.792 5.664-53.44 15.36 9.76-2.72 20.032-4.192 30.56-4.192 63.776 0 116.96 53.216 116.96 116.96 0 6.24-0.512 12.352-1.504 18.336 6.432-13.344 10.080-28.224 10.080-43.808 0-55.968-46.72-102.688-102.688-102.688zM697.824 46.080c-20 0-38.784 5.984-54.72 16.192 8.256-1.92 16.832-2.944 25.6-2.944 63.776 0 116.96 53.216 116.96 116.96 0 11.008-1.632 21.696-4.576 31.84 12.16-16.864 19.392-37.408 19.392-59.392 0-55.968-46.72-102.688-102.688-102.688zM938.304 558.944c0-36.736-30.656-67.36-67.36-67.36-13.92 0-26.944 4.416-37.792 11.872 4.672-0.928 9.472-1.44 14.4-1.44 41.248 0 75.648 34.4 75.648 75.648 0 10.784-2.368 21.088-6.592 30.432 13.28-12.384 21.696-29.92 21.696-49.152zM881.856 252.736c-15.36 0-29.824 4.352-42.272 11.84 5.632-1.12 11.424-1.728 17.344-1.728 49.728 0 91.232 41.504 91.232 91.232 0 15.904-4.256 30.944-11.648 44.064 17.408-15.328 28.512-37.696 28.512-62.24 0-45.344-37.824-83.168-83.168-83.168zM723.712 820.288c-23.776 0-45.664-9.44-62.112-24.704 0 0.704 0.064 1.408 0.064 2.112 0 46.4-38.72 85.12-85.12 85.12s-85.12-38.72-85.12-85.12c0-46.4 38.72-85.12 85.12-85.12 21.088 0 40.576 8.032 55.584 21.088-0.096-1.696-0.16-3.424-0.16-5.152 0-50.016 41.76-91.776 91.776-91.776s91.776 41.76 91.776 91.776c0 50.016-41.728 91.776-91.776 91.776zM404.512 866.848c-43.52 0-80.256-34.048-84.672-76.544-15.104 11.296-33.696 18.016-53.632 18.016-49.312 0-90.432-41.152-90.432-90.432 0-13.28 3.008-25.952 8.32-37.408-6.752 1.248-13.664 1.92-20.736 1.92-63.808 0-117.056-53.248-117.056-117.056s53.248-117.056 117.056-117.056c63.808 0 117.056 53.248 117.056 117.056 0 22.72-6.784 44.064-18.336 62.176 1.376-0.064 2.752-0.096 4.16-0.096 47.264 0 87.040 37.856 90.208 84.416 13.76-9.6 30.368-15.264 48.128-15.264 46.4 0 85.12 38.72 85.12 85.12s-38.72 85.12-85.12 85.12zM175.328 471.68c-10.080 0-19.808 1.824-28.832 5.152 2.272 0 4.512 0.128 6.72 0.32 3.328-0.384 6.72-0.576 10.176-0.576 50.592 0 92.8 42.208 92.8 92.8 0 7.744-0.992 15.264-2.848 22.496-0.032 0.256-0.032 0.512-0.064 0.768 4.992-10.784 7.776-22.72 7.776-35.232 0-46.72-38.976-85.728-85.728-85.728z" />
<glyph unicode="&#xe906;" glyph-name="brooches" horiz-adv-x="1216" d="M947.584 512l-663.776-382.848c9.824 33.6 6.624 71.040-12.288 103.84-10.752 18.688-25.44 33.824-42.4 44.896-12.704 8.352-26.816 14.080-41.408 17.664l663.904 382.976-19.584 33.92-741.568-427.712c-18.976-10.88-34.368-25.856-45.6-43.008-23.712-36.256-29.152-82.72-12.416-124.48 2.336-5.856 5.12-11.648 8.352-17.312 1.248-2.176 2.784-4.16 4.16-6.24 10.4-16 23.584-29.312 38.72-39.264l0.192-0.096c41.312-27.008 96.064-30.336 141.696-4l741.568 427.712-19.552 33.952zM237.536 213.44c18.368-31.808 16.032-69.728-2.752-98.464-7.776-11.904-18.368-22.176-31.712-29.888v0c-31.744-18.304-69.696-15.936-98.4 2.816-10.56 6.944-19.776 16.16-27.072 27.36-0.928 1.408-1.984 2.752-2.816 4.288-2.304 3.968-4.256 8.032-5.92 12.192-11.552 28.896-7.68 61.12 8.736 86.24 7.84 12 18.432 22.304 31.68 29.888 31.776 18.336 69.664 15.968 98.432-2.784 11.968-7.808 22.208-18.4 29.856-31.648zM1184.448 759.456c-47.040 81.568-151.264 109.568-232.864 62.56l-173.472-100 65.472-113.568 33.44 19.232c18.848 10.88 42.912 4.416 53.792-14.464 10.88-18.848 4.384-42.912-14.464-53.728l-33.44-19.296 65.504-113.568 173.472 100.032c81.568 46.976 109.568 151.264 62.56 232.832zM1079.136 655.872c-17.76-10.24-99.072-37.92-109.312-20.16-10.208 17.76 54.464 74.24 72.256 84.48s40.48 4.16 50.72-13.632c10.24-17.76 4.16-40.448-13.632-50.688z" />
<glyph unicode="&#xe907;" glyph-name="contact" horiz-adv-x="1120" d="M632.608 516.384c0 22.496-0.672 42.784 0.192 63.040 1.024 23.84 15.232 38.944 37.984 40.256 22.528 1.312 39.552-11.392 42.816-35.072 3.040-22.144 3.040-44.736 4.64-71.712 52.8 10.368 80.8-22.496 110.336-57.248 48.352-56.896 101.952-109.44 149.408-167.040 16.704-20.32 28.64-49.536 30.912-75.744 4.672-53.984 1.888-108.672 1.152-163.040-0.608-45.504-23.904-69.696-69.376-69.76-252.736-0.48-505.504-0.416-758.24 0-36.256 0.064-64.736 19.968-65.376 51.648-1.44 69.92 0.704 140.032 5.152 209.824 1.088 16.928 14.24 35.168 26.24 48.992 50.496 58.112 103.744 113.856 153.728 172.352 27.776 32.512 56.288 59.104 107.392 49.12 0 23.584-0.768 42.528 0.192 61.376 1.408 27.392 15.584 47.104 43.68 46.112 28.224-0.992 40.48-21.152 39.616-49.184-0.512-16.96-0.096-33.952-0.096-54.016 45.728 0 90.176 0 139.648 0zM562.464 49.824c111.040-0.16 197.408 85.536 198.848 197.248 1.344 105.952-88.704 195.872-196.736 196.448-110.56 0.576-202.624-87.008-199.968-196.032 2.688-110.816 79.488-196.768 197.856-197.632zM150.912 500.736c-26.080 0.032-52.16 0.48-78.208-0.064-25.696-0.544-36.192 12.48-38.048 37.024-5.984 80.48 36 135.232 95.968 180.032 114.816 85.824 247.424 120.064 387.584 126.752 172.512 8.224 336.224-21.792 478.368-128.224 56.64-42.4 97.056-94.4 94.496-170.816-1.056-30.752-11.392-45.984-44.16-45.056-50.976 1.408-102.016 0.256-153.024 0.608-23.776 0.16-42.336 7.776-45.152 35.456-9.056 88.672-71.904 131.136-147.36 140.352-91.040 11.136-185.024 8.832-276.544-0.128-39.872-3.904-78.976-35.616-113.888-60.96-15.872-11.552-24.864-37.408-29.536-58.432-11.776-52.832-13.92-56.416-69.312-56.544-20.416-0.064-40.8 0-61.216 0.032zM562.368 377.504c74.592 0.128 134.624-59.2 134.144-132.512-0.48-72-61.248-129.632-136.864-129.728-70.976-0.096-128.864 57.376-129.984 129.024-1.152 74.112 57.632 133.12 132.704 133.216z" />
<glyph unicode="&#xe908;" glyph-name="hairbands" horiz-adv-x="1152" d="M542.336 748.992c-23.232 13.376-44.224 4.48-62.592-7.872-27.616-18.56-47.936-44.576-46.208-79.328 2.72-55.168 8.384-110.24 14.016-165.216 7.936-77.472 19.104-154.656 24.864-232.288 4.032-54.304-10.816-106.368-34.912-155.264-47.904-97.152-148.544-140.64-253.216-112.512-74.112 19.904-130.944 63.296-178.208 119.68 36.8 6.56 74.336 10.88 110.624 20.224 63.84 16.448 95.552 60.992 91.808 126.976-4.096 72.256-11.36 144.352-14.816 216.608-4.16 86.72-1.344 173.152 27.424 256.448 36.928 107.008 126.528 156.448 236.032 128.128 22.784-5.888 43.328-21.056 64.288-33.056 13.792-7.904 26.080-18.4 39.712-26.624 20.192-12.224 37.184-11.072 58.912 3.648 56.576 38.4 118.208 56.608 185.888 26.4 5.088-2.272 13.44 1.696 19.968 3.776 58.976 18.912 118.080 33.536 178.176 4.736 40.704-19.488 67.904-53.12 89.184-91.264 14.144-25.344 24.576-52.8 36.256-79.456 9.248-21.088 2.752-33.568-20.352-38.976-20.928-4.896-41.312-12.224-61.632-18.368-3.232-20.288-6.272-39.52-9.76-61.536 8.608 1.856 15.648 3.392 29.088 6.304-11.264-12.736-18.272-20.704-27.648-31.264 17.28-23.008 34.88-45.888 51.872-69.216 19.232-26.368 16.896-34.56-12.672-48.8-31.968-15.392-32.288-16.32-15.040-46.272 9.568-16.608-0.48-54.432-14.080-67.552-7.264-7.008-12.032-20.224-11.936-30.592 0.48-53.376-16.16-70.112-70.24-66.72-15.008 0.96-29.952 2.976-44.864 4.832-14.592 1.792-29.152 3.968-47.168 6.432 2.656-50.368 3.936-98.752 32.896-137.184 13.504-17.92 41.632-24.864 63.264-36.512 10.112-5.44 20.576-10.208 30.88-15.296-9.792-8.832-18.464-23.296-29.568-25.536-56.992-11.424-114.432-25.792-172.032-27.456-61.344-1.76-123.36 7.424-184.48 16.192-20.864 2.976-39.84 19.2-59.648 29.376 0.928 3.936 1.824 7.872 2.72 11.808 14.080 3.392 28.096 7.072 42.24 10.112 37.728 8.096 52.672 22.016 55.552 60.128 3.776 49.664 5.472 99.552 5.824 149.344 0.064 10.528-7.232 23.168-14.848 31.392-37.632 40.704-77.312 79.52-114.816 120.352-69.344 75.456-83.296 215.552-30.208 303.168 10.016 16.512 24.672 30.208 39.52 47.968zM743.776 380.48c25.28 17.024 36.64 41.728 29.568 67.904-7.36 27.2-21.216 53.376-36.096 77.632-31.968 52.128-25.408 89.664 24.768 124.896 12.832 9.024 24.928 19.008 37.376 28.576-15.52-2.88-27.008-10.656-38.624-18.24-60.672-39.712-72.544-85.952-31.936-144.48 30.272-43.648 45.376-86.016 14.944-136.256zM868.896 811.872c83.2-7.424 112.896-72.192 153.6-133.504-3.648 69.792-86.784 140.16-153.6 133.504z" />
<glyph unicode="&#xe909;" glyph-name="headbands" d="M342.080 32.672c17.248 4.864 34.464 9.92 51.808 14.496 21.824 5.792 36.192 20.8 38.272 41.824 4.768 47.552 6.24 95.424 9.216 146.048-50.368-28.96-63.104-72.32-37.12-113.28 11.616-18.304 5.664-29.696-18.976-29.472-46.56 0.416-86.464 19.264-120.416 50.72-32.96 30.528-46.72 71.392-57.216 112.928-31.648 125.28-46.432 253.12-42.080 381.92 4.352 128.96 81.856 210.464 192.992 262.368 73.024 34.112 149.664 47.744 227.264 12.608 36.224-16.384 60.832-44.832 78.144-80.736 5.152-10.72 15.584-21.696 26.304-26.464 51.904-23.072 98.368-52.064 125.472-104.224 7.328-14.112 11.584-29.856 17.408-45.344-12.128-5.984-20.896-10.336-25.088-12.384 0-34.624 0-65.6 0-98.432 3.616 0.416 10.048 1.12 22.496 2.528-8.96-10.688-14.784-17.632-23.456-28 14.912-20.032 30.272-41.024 46.048-61.76 22.112-29.024 20.48-37.184-11.68-52.992-19.488-9.568-33.216-19.2-13.888-42.88 13.28-16.224 2.592-53.024-12.576-66.784-7.104-6.432-11.488-19.744-11.264-29.792 1.12-51.456-15.296-68.128-67.52-64.608-14.528 0.992-28.96 3.2-43.424 5.056-14.24 1.824-28.448 3.872-46.24 6.304 2.976-50.112 5.152-98.752 33.792-137.44 12.576-16.992 41.856-21.568 63.456-32 9.216-4.448 18.176-9.504 27.264-14.272-7.84-7.712-14.432-19.808-23.776-22.528-119.264-34.752-239.84-44.448-361.088-11.2-16.928 4.64-31.456 18.048-47.104 27.392 0.992 3.488 1.984 6.976 2.944 10.432zM479.68 578.208c-12.48 83.904 47.84 104.48 106.496 127.744-5.952 8.576-10.368 14.944-16.896 24.384 27.040 14.848 54.112 27.648 78.592 44.256 9.152 6.208 12.256 21.376 18.144 32.448-12.224 3.072-26.464 11.712-36.256 8.128-22.656-8.256-44.864-20.192-64.128-34.784-20.416-15.488-37.92-31.456-62.144-5.312-16.736-41.44-31.936-79.104-47.68-118.144-19.936-7.104-41.76-14.912-70.144-25.024 33.856-21.152 60.384-41.632 44.032-81.952 6.208 11.84 12.384 23.712 19.040 36.416 8.352-2.208 16.032-4.224 30.944-8.128zM529.888 392.288c-19.936 13.952-31.104 27.616-43.776 29.184-17.696 2.208-27.104-13.824-26.72-30.944 0.416-18.624 11.584-33.6 30.528-29.984 11.872 2.24 21.504 16.416 39.968 31.776zM528.288 412.32c-51.168 61.312-29.408 127.584-32.928 193.92-29.632-47.232-12.064-160.16 32.928-193.92zM756.224 680.928c2.72 57.088-38.496 112.256-86.976 111.072 48.416-24.8 75.936-58.336 86.976-111.072zM670.944 779.328c16.704-38.368 25.824-76.736 5.024-116.672 31.968 34.432 29.984 90.24-5.024 116.672z" />
<glyph unicode="&#xe90a;" glyph-name="mascots" horiz-adv-x="1088" d="M977.728 790.432c-41.312 56.448-147.936 64.768-199.36 17.44-17.504-16.096-31.744-18.336-52.896-7.424-123.904 63.872-249.152 58.944-374.048 2.976-24.16-10.816-41.472-14.176-64.384 6.88-39.2 36.064-95.040 39.040-136.544 19.872-98.4-45.472-127.264-153.952-43.456-234.304 29.472-28.256 31.712-49.44 22.624-79.328-9.824-32.224-6.912-64.64-8.032-97.12-7.296-213.44 194.464-415.232 414.688-409.056 32.416-6.56 69.76 2.272 104.32 11.328 220.448 57.92 362.304 284.192 303.232 509.664-6.464 24.736-9.376 45.056 13.728 60.032 61.728 39.968 67.648 134.144 20.128 199.104zM240.544 690.944c-0.96-7.584-3.904-13.344-7.968-17.728-6.304-9.6-16.864-16.448-31.904-16.448-51.904 0-51.904 80.48 0 80.48 19.552 0 31.744-11.424 36.544-25.696 3.040-5.728 4.352-12.608 3.328-20.608zM323.2 421.088c-6.144-3.648-13.664-5.824-22.592-5.824-57.088 0-57.088 88.544 0 88.544 22.56 0 36.16-13.824 40.896-30.528 2.112-5.216 3.328-11.040 3.392-17.408 0.16-19.744-11.296-29.792-21.664-34.784zM530.56 500.608c28.608 0.096 47.552-8.384 46.752-40.544-0.736-29.664-19.264-38.24-49.184-37.408-23.584-1.28-44.768 5.248-45.184 38.24-0.416 32.704 19.616 39.616 47.648 39.712zM586.368 298.4c-1.44-4.448-3.424-8.384-5.6-12.224-2.72-8.96-6.912-17.184-13.76-23.968-6.048-9.024-13.568-15.552-27.232-14.976-15.968 0.672-30.912 6.304-39.52 20.64-1.504 2.496-2.752 5.024-3.872 7.552-4 5.696-5.568 12.48-6.144 19.552-0.736 3.328-1.344 6.72-1.984 10.112-0.512 2.048-0.896 4.096-1.152 6.208-0.672 3.648-1.408 7.328-2.272 11.040-3.136 13.312 13.248 20.256 21.152 13.12 0.032-0.032 0.096-0.032 0.16-0.096 0.32-0.288 0.608-0.672 0.896-0.992 0.064-0.096 0.16-0.192 0.256-0.288 4.768-5.408 5.696-13.76 5.664-21.952 0.032-0.16 0.096-0.32 0.16-0.512-0.064-0.448 0-0.896-0.032-1.344-0.672-3.296-0.768-6.752-0.192-10.272 0.192-1.184 0.544-2.336 0.928-3.488 0.16-0.512 0.32-1.024 0.48-1.536-0.192-6.816 2.56-13.28 8.704-17.6 2.368-2.144 5.152-3.776 8.224-4.608 11.712-3.2 22.784 3.904 26.432 15.008 2.176 6.592 3.424 13.504 4.128 20.48 0.416 2.24 0.832 4.48 1.152 6.752 0.32 3.392 0.48 6.88 0.64 10.464 0.768 16.48 26.4 16.544 25.664 0-0.416-8.8-0.224-18.624-2.976-27.072zM774.976 414.72c-16.16 0-27.744 7.104-34.752 17.28-5.248 6.752-8.48 15.712-8.288 27.424 0.256 16.832 5.44 28.192 15.776 34.688 6.848 5.6 15.904 9.152 27.264 9.152 57.088 0 57.088-88.544 0-88.544zM865.952 658.176c-51.904 0-51.904 80.48 0 80.48s51.904-80.48 0-80.48z" />
<glyph unicode="&#xe90b;" glyph-name="necklaces" d="M197.632 697.728c17.664-142.656 80-258.432 186.912-349.44 20-17.024 43.936-30.272 67.776-41.696 28.032-13.408 33.984-32.096 20.48-58.080-6.944-13.344-15.648-26.016-24.736-38.080-30.336-40.32-26.24-85.088 11.424-118.432 34.112-30.208 86.784-31.136 118.464-2.112 39.552 36.256 43.392 80 11.808 121.44-9.856 12.928-19.232 27.136-24.928 42.208-6.976 18.528-6.72 36.096 15.616 48.064 154.176 82.688 232.384 216.96 259.392 385.536 0.544 3.392 3.072 6.464 4.64 9.664 92.256-38.656 135.264-114.24 108.576-219.040-52.416-205.632-163.040-375.584-335.2-502.688-63.456-46.848-126.656-45.792-193.504-1.888-111.84 73.472-187.072 177.6-252.256 290.464-47.808 82.752-89.76 168.32-90.944 267.264-0.928 78.72 38.304 135.776 116.448 166.816zM802.208 718.592c-36.384-170.080-125.568-290.688-268-371.328-9.12-5.152-27.584-2.432-37.408 3.616-132.192 81.44-221.92 194.144-255.488 348.544-4.992 22.944 3.040 33.536 18.272 47.936 29.056 27.52 65.248 54.336 79.552 89.248 35.232 86.144 133.312 119.36 219.008 104.896 62.176-10.496 107.936-41.248 139.52-99.264 19.84-36.48 54.432-64.928 82.304-97.056 8.96-10.304 17.568-20.96 22.272-26.592zM517.312 739.264c30.048 9.76 55.552 14.144 76.992 25.984 29.184 16.064 31.584 45.088 9.76 65.952-37.568 35.968-127.648 36.992-166.144 1.952-22.24-20.256-25.664-43.776 0-60.128 24.448-15.52 53.856-23.296 79.264-33.728z" />
<glyph unicode="&#xe90c;" glyph-name="pendants" d="M778.176 849.248c0 13.088 2.016 28.192-0.768 42.336-1.632 8.224-10.624 20.928-16.96 21.344-36.736 2.368-71.872 6.048-103.040-26.848-81.76-86.208-169.248-166.976-250.784-253.344-43.104-45.664-81.728-71.52-153.152-63.648-126.944 13.952-229.632-104.608-222.464-237.664 6.656-123.392 122.784-221.792 243.808-206.624 133.856 16.768 223.808 137.6 195.712 265.888-6.944 31.648-4.096 50.592 31.232 59.136 9.6 2.336 22.976 20.288 22.016 29.76-4.608 44.576-21.664 90.88 35.552 116.64 4.256 1.92 6.432 11.744 6.912 18.080 1.984 26.24 17.472 35.552 41.728 38.432 40.032 4.768 68.448 25.44 82.272 64.864 2.24 6.336 10.016 11.296 16.128 15.648 39.712 28.352 78.88 56.832 71.808 116.032zM204.064 241.536c-34.304 0.16-59.904 24.896-57.472 53.408 2.656 30.848 20.512 49.088 51.872 50.592 30.016 1.44 53.6-23.040 52.192-53.472-1.504-31.968-20.384-47.616-46.592-50.496zM418.944 532.224c-2.592 2.336-5.184 4.672-7.776 7.008 112 110.784 224 221.6 336 332.384 1.952-1.92 3.872-3.872 5.824-5.824-111.328-111.2-222.688-222.368-334.016-333.568zM491.872 408.8c24.288 24.128 42.944 43.456 62.624 61.696 6.464 5.984 15.136 10.592 23.616 13.312 110.56 35.52 221.408 70.208 331.936 105.888 42.944 13.856 68.928-16.928 106.56-34.88-18.112-34.112-28.832-71.776-53.28-94.944-20.64-19.584-57.088-22.752-86.816-32.448-9.472-3.072-22.336-0.608-29.12-6.208-31.808-26.208-66.56-32.064-104.352-18.336-21.888 7.936-38.336 5.216-51.072-15.424-3.296-5.344-9.76-12.416-14.816-12.448-60.416-0.448-73.984-43.168-86.336-90.016-1.92-7.328-22.656-16.352-32-13.952-37.664 9.664-47.904-8.448-56.8-40.928-36.032-131.36-191.264-198.144-312.608-136.32-5.6 2.848-10.144 7.808-14.976 15.168 95.264-22.048 181.024-6.272 250.72 62.816 69.056 68.448 89.536 152.416 66.688 237.056zM519.136 389.568c1.376-4.288 2.752-8.576 4.096-12.832 148.768 47.264 297.536 94.528 446.304 141.76-1.376 4.256-2.72 8.544-4.096 12.8-148.768-47.264-297.536-94.496-446.304-141.728zM752.96 865.792c-1.952 1.952-3.872 3.872-5.824 5.824zM411.168 539.232c2.592-2.336 5.184-4.672 7.776-7.008z" />
<glyph unicode="&#xe90d;" glyph-name="products" d="M513.792-45.216c-96.032 0-192.096-0.192-288.128 0.064-71.104 0.192-95.904 26.24-92.576 96.128 9.44 198.016 18.848 396 28.32 594.016 2.144 44.832 10.016 52.128 55.712 52.32 11.616 0.032 23.456 1.504 34.752-0.384 14.688-2.464 40.128-5.696 41.216-12.032 3.296-18.944 2.784-43.072-6.72-58.848-26.24-43.488-25.504-86.88 8.512-117.568 31.936-28.8 80.672-28.928 112.64-0.32 33.76 30.208 36.48 74.144 8.704 117.088-5.12 7.904-10.432 22.368-6.752 27.744 5.12 7.488 18.528 12.704 28.512 12.928 54.848 1.216 109.76 1.216 164.608 0.064 9.984-0.224 25.216-5.376 28.288-12.48 3.328-7.68-2.56-21.728-8.256-30.496-25.856-39.808-22.304-85.728 10.432-114.784 32.224-28.64 81.216-28.512 112.576 0.32 33.568 30.88 35.584 74.304 10.592 114.912-9.44 15.328-8.992 36.896-12.16 55.776-0.544 3.296 3.072 10.4 5.184 10.56 30.944 2.272 62.56 7.648 92.576 3.008 10.112-1.568 22.144-28.864 23.104-45.024 6.592-110.56 10.144-221.312 15.392-331.968 4.256-89.44 9.696-178.784 14.272-268.224 3.36-65.536-22.912-92.8-89.472-92.928-97.088-0.192-194.208-0.032-291.296-0.032 0 0.064 0 0.128 0 0.192zM371.52 686.656c2.848-31.872-8.992-71.136 16.8-106.784 4.928-6.816-4.64-33.344-14.432-39.2-11.424-6.816-34.048-6.272-45.056 1.12-9.376 6.304-17.216 32.704-11.84 40.096 23.968 32.832 14.112 68.704 15.936 103.456 1.312 25.248-0.448 50.72 1.856 75.84 9.664 105.152 91.424 180.32 190.784 176.512 102.56-3.904 179.136-83.584 181.824-189.824 0.8-31.616-1.664-63.424 0.896-94.848 1.792-21.92 12.224-43.136 13.76-65.024 1.088-15.744-1.216-37.344-11.136-46.56-8.512-7.904-35.52-8.192-44.128-0.48-10.112 9.056-17.76 36.736-11.488 45.248 17.888 24.224 15.072 49.376 15.040 75.136-0.032 34.784 1.216 69.76-2.080 104.288-7.616 79.296-75.040 137.504-152.8 134.528-78.56-3.008-140.192-64.608-143.84-144.416-0.96-21.024-0.16-42.176-0.16-69.088z" />
<glyph unicode="&#xe90e;" glyph-name="pillows" horiz-adv-x="724" d="M38.223 234.033c-10.789 21.574-18.014 44.187-22.809 67.526-3.027 14.726-5.369 29.622-7.304 44.535-1.756 13.528-2.838 27.163-3.684 40.782-0.945 15.222-1.263 30.482-1.916 45.721-0.186 4.354-0.888 8.705-0.839 13.052 0.161 14.389 0.307 28.788 0.934 43.162 0.563 12.917 1.394 25.844 2.739 38.699 3.384 32.333 7.719 64.536 17.988 95.559 4.238 12.803 9.249 25.35 14.239 38.917-4.206 4.774-9.504 10.206-14.137 16.156-12.769 16.403-22.126 34.508-26.41 55.038-2.616 12.541-3.12 25.213 0.203 37.513 3.85 14.248 11.139 26.377 24.254 34.656 14.171 8.946 29.631 11.222 45.649 9.778 16.78-1.513 32.618-6.991 46.884-16.033 9.794-6.208 18.976-13.382 28.407-20.154 0.597-0.429 1.064-1.083 1.486-1.703 2.284-3.355 4.589-4.489 8.841-2.309 23.17 11.888 47.886 19.27 73.429 23.91 14.658 2.661 29.367 5.090 44.112 7.212 7.716 1.11 15.574 1.191 23.345 1.975 33.067 3.34 66.237 2.847 99.388 2.626 13.421-0.089 26.862-0.789 40.244-1.846 13.721-1.084 27.431-2.596 41.058-4.536 31.134-4.435 61.725-11.18 90.982-23.062 3.842-1.559 7.387-3.852 11.23-5.409 1.203-0.488 3.302-0.165 4.367 0.625 8.024 5.971 15.836 12.223 23.821 18.246 10.86 8.191 23.359 12.965 36.2 16.954 10.443 3.244 21.176 4.227 32.046 3.656 22.713-1.191 45.478-14.209 53.699-38.089 6.78-19.69 4.885-38.905-1.531-58.010-6.26-18.644-16.482-35.020-29.894-49.4-1.3-1.394-2.765-2.688-3.792-4.263-0.454-0.699-0.358-2.176 0.079-2.975 8.039-14.699 13.855-30.334 18.072-46.436 4.326-16.515 7.788-33.281 10.955-50.065 1.938-10.263 2.824-20.748 3.782-31.168 1.155-12.573 1.94-25.183 2.777-37.783 0.431-6.472 0.764-12.956 0.901-19.439 0.381-17.886 0.951-35.777 0.837-53.66-0.088-13.421-0.873-26.852-1.803-40.248-0.884-12.709-1.945-25.434-3.683-38.049-2.012-14.603-4.392-29.19-7.466-43.602-2.69-12.612-5.944-25.18-10.087-37.382-4.053-11.936-9.544-23.387-14.453-35.165 11.535-12.016 22.139-25.427 28.53-41.614 3.584-9.083 7.385-18.287 9.256-27.798 4.606-23.427 1.489-45.57-15.896-63.491-8.929-9.204-20.469-14.080-33.239-16.025-19.786-3.015-38.296 1.181-56.282 9.181-13.76 6.12-26.137 14.277-37.293 24.341-1.625 1.466-2.929 3.409-4.762 4.483-1.244 0.729-3.351 0.86-4.733 0.345-12.386-4.622-24.443-10.314-37.090-13.994-16.089-4.679-32.538-8.31-49.019-11.393-15.245-2.852-30.73-4.441-46.125-6.467-4.167-0.547-8.388-0.792-12.592-0.956-9.823-0.383-19.648-0.742-29.479-0.917-21.231-0.377-42.466-0.92-63.697-0.831-13.572 0.056-27.166 0.774-40.7 1.827-14.025 1.091-28.126 2.186-41.951 4.644-20.765 3.694-41.476 7.957-61.9 13.186-12.59 3.223-24.624 8.639-36.858 13.205-2.064 0.772-3.948 2.126-5.779 3.406-2.327 1.623-4.092 0.774-5.999-0.786-8.749-7.152-17.099-14.916-26.449-21.177-12.421-8.318-26.319-13.973-41.001-16.992-7.148-1.469-14.61-1.694-21.946-1.913-15.2-0.456-28.81 4.59-40.557 13.918-7.527 5.977-12.617 14.117-16.043 23.194-7.947 21.054-5.241 41.747 2.283 62.175 6.203 16.841 15.655 31.768 27.654 45.1 2.815 3.131 5.521 6.364 8.525 9.834zM310.986 743.114c0-1.708 0-3.040 0-4.369 0-14.142 0.126-28.287-0.081-42.427-0.058-3.943 1.025-5.242 5.111-5.217 27.523 0.165 55.048 0.086 82.573 0.086 1.602 0 3.205 0 5.321 0-2.836-4.382-5.184-8.316-7.827-12.040-18.28-25.765-36.629-51.482-54.943-77.225-10.188-14.321-20.389-28.634-30.494-43.014-2.473-3.518-5.947-7.064-6.575-10.981-1.085-6.757-0.3-13.812-0.3-21.091 70.152 0 139.776 0 209.527 0 0 17.644 0 34.728 0 52.080-33.959 0-67.634 0-101.626 0 0.502 1.314 0.636 2.090 1.046 2.67 12.547 17.765 25.153 35.49 37.686 53.265 18.802 26.662 37.049 53.735 56.599 79.836 7.114 9.497 3.314 18.848 4.871 28.426-67.263 0-133.705 0-200.886 0zM256.997 379.078c0.409 1.090 0.48 1.535 0.713 1.865 11.090 15.693 22.198 31.375 33.295 47.063 9.55 13.501 18.753 27.264 28.752 40.422 6.709 8.828 11.191 17.735 7.882 28.921-47.448 0-94.943 0-142.331 0 0-12.474 0-24.58 0-37.067 22.060 0 43.864 0 66.115 0-5.344-7.797-10.275-15.186-15.408-22.431-6.547-9.244-13.327-18.323-19.882-27.562-9.13-12.873-17.842-26.057-27.313-38.671-6.702-8.924-12.065-17.821-8.463-29.685 49.899 0 100.13 0 150.706 0 0 10.429 0 20.587 0 30.746-0.001 6.395-0.002 6.398-6.498 6.399-22.336 0.001-44.675 0.001-67.567 0.001zM455.223 192.376c0 9.513 0 18.639 0 28.217-18.726 0-36.689 0-55.298 0 9.405 13.062 18.436 25.442 27.289 37.949 7.31 10.325 14.159 20.985 21.709 31.127 3.57 4.792 5.894 9.4 5.494 15.571-0.241 3.73-1.467 4.551-4.905 4.54-33.002-0.103-66.004-0.062-99.005-0.063-0.76 0-1.703 0.271-2.24-0.078-0.986-0.64-2.451-1.634-2.469-2.507-0.185-8.456-0.111-16.919-0.111-25.822 16.998 0 33.462 0 50.493 0-0.596-1.068-0.816-1.575-1.134-2.013-5.76-7.983-11.605-15.903-17.286-23.942-9.883-13.985-19.523-28.143-29.551-42.021-4.634-6.414-8.133-12.831-5.64-20.958 37.614 0 75.217 0 112.656 0z" />
<glyph unicode="&#xe90f;" glyph-name="price-tag" d="M976 960h-384c-26.4 0-63.274-15.274-81.942-33.942l-476.116-476.116c-18.668-18.668-18.668-49.214 0-67.882l412.118-412.118c18.668-18.668 49.214-18.668 67.882 0l476.118 476.118c18.666 18.666 33.94 55.54 33.94 81.94v384c0 26.4-21.6 48-48 48zM736 576c-53.020 0-96 42.98-96 96s42.98 96 96 96 96-42.98 96-96-42.98-96-96-96z" />
<glyph unicode="&#xe910;" glyph-name="man" d="M576 864c0-53.019-42.981-96-96-96s-96 42.981-96 96c0 53.019 42.981 96 96 96s96-42.981 96-96zM576 704h-192c-35.346 0-64-28.654-64-64v-320h64v-384h80v384h32v-384h80v384h64v320c0 35.346-28.652 64-64 64z" />
<glyph unicode="&#xe911;" glyph-name="woman" d="M576 864c0-53.019-42.981-96-96-96s-96 42.981-96 96c0 53.019 42.981 96 96 96s96-42.981 96-96zM719 448l49 35.5-133.286 206.116c-5.92 8.98-15.958 14.384-26.714 14.384h-256c-10.756 0-20.792-5.404-26.714-14.384l-133.286-206.116 49-35.5 110.644 143.596 38.458-89.74-134.102-245.856h122.666l21.334-320h64v320h32v-320h64l21.334 320h122.666l-134.104 245.858 38.458 89.74 110.646-143.598z" />
<glyph unicode="&#xe912;" glyph-name="man-woman" d="M256 864c0-53.019-42.981-96-96-96s-96 42.981-96 96c0 53.019 42.981 96 96 96s96-42.981 96-96zM832 864c0-53.019-42.981-96-96-96s-96 42.981-96 96c0 53.019 42.981 96 96 96s96-42.981 96-96zM256 704h-192c-35.346 0-64-28.654-64-64v-320h64v-384h80v384h32v-384h80v384h64v320c0 35.346-28.652 64-64 64zM975 448l49 35.5-133.286 206.116c-5.92 8.98-15.958 14.384-26.714 14.384h-256c-10.756 0-20.792-5.404-26.714-14.384l-133.286-206.116 49-35.5 110.644 143.596 38.458-89.74-134.102-245.856h122.666l21.334-320h64v320h32v-320h64l21.334 320h122.666l-134.104 245.858 38.458 89.74 110.646-143.598z" />
<glyph unicode="&#xe913;" glyph-name="facebook" d="M608 768h160v192h-160c-123.514 0-224-100.486-224-224v-96h-128v-192h128v-512h192v512h160l32 192h-192v96c0 17.346 14.654 32 32 32z" />
<glyph unicode="&#xe9ae;" glyph-name="briefcase" d="M960 704h-256v64c0 35.2-28.8 64-64 64h-256c-35.204 0-64-28.8-64-64v-64h-256c-35.2 0-64-28.8-64-64v-576c0-35.202 28.796-64 64-64h896c35.2 0 64 28.798 64 64v576c0 35.2-28.8 64-64 64zM384 767.884c0.034 0.040 0.074 0.082 0.114 0.116h255.772c0.042-0.034 0.082-0.076 0.118-0.116v-63.884h-256.004v63.884zM960 448h-128v-96c0-17.602-14.4-32-32-32h-64c-17.604 0-32 14.398-32 32v96h-384v-96c0-17.602-14.4-32-32-32h-64c-17.602 0-32 14.398-32 32v96h-128v64h896v-64z" />
<glyph unicode="&#xf0be;" glyph-name="at" horiz-adv-x="832" d="M466.697 860.899c-228.037 27.999-435.597-134.164-463.595-362.201-28-228.038 134.163-435.598 362.2-463.597 71.429-8.756 145.115 0.913 213.325 29.946l-0.016 0.032c24.404 10.357 35.788 38.538 25.431 62.939-10.359 24.403-38.538 35.787-62.94 25.43l-0.001 0.004c-52.472-22.339-109.15-29.799-164.1-23.067-175.413 21.538-300.153 181.2-278.616 356.613s181.199 300.154 356.613 278.616c175.412-21.538 300.154-181.199 278.617-356.612-4.309-35.083-21.542-55.725-61.6-55.725-42.5 0-64 45.889-64 81.222v125.501c0 26.51-21.49 48-48 48-9.699 0-18.72-2.887-26.269-7.833-25.684 20.259-57.437 33.87-94.349 38.402-105.246 12.923-201.045-61.924-213.967-167.17s61.924-201.045 167.17-213.967c57.379-7.045 116.216 14.707 157.871 53.13 24.959-28.124 59.866-47.624 100.121-52.567 87.707-10.769 167.537 51.602 178.307 139.309 27.999 228.036-134.165 435.595-362.202 463.595zM511.285 436.301c-6.462-52.623-54.361-90.047-106.985-83.585-52.623 6.461-90.046 54.36-83.585 106.984s54.361 90.046 106.984 83.585c52.623-6.462 90.047-54.361 83.586-106.984z" />
</font>
</defs>
</svg>
